<svg width="512" height="512" viewBox="0 0 512 512" fill="none" xmlns="http://www.w3.org/2000/svg">
<g clip-path="url(#clip0_182_2)">
<path d="M384 0H128C57.3075 0 0 57.3075 0 128V384C0 454.692 57.3075 512 128 512H384C454.692 512 512 454.692 512 384V128C512 57.3075 454.692 0 384 0Z" fill="black"/>
<path d="M325.226 94.8526C374.702 87.7319 419 126.122 419 176.121C419 196.895 411.18 216.327 397.892 231.084V332.376C397.697 332.375 397.501 332.373 397.306 332.373C350.352 332.373 312.288 370.447 312.288 417.414C312.288 417.609 312.29 417.805 312.291 418H155.151C133.131 418 115.281 400.144 115.281 378.119V232.359C101.281 217.456 93.0001 197.499 93 176.121C93 126.122 137.298 87.7319 186.774 94.8526L242.639 102.893C251.501 104.168 260.499 104.168 269.361 102.893L325.226 94.8526Z" fill="white"/>
</g>
<defs>
<clipPath id="clip0_182_2">
<rect width="512" height="512" fill="white"/>
</clipPath>
</defs>
</svg>
