<svg width="512" height="512" viewBox="0 0 512 512" fill="none" xmlns="http://www.w3.org/2000/svg">
<g clip-path="url(#clip0_182_2)">
<path d="M384 0H128C57.3075 0 0 57.3075 0 128V384C0 454.692 57.3075 512 128 512H384C454.692 512 512 454.692 512 384V128C512 57.3075 454.692 0 384 0Z" fill="black"/>
<path d="M342 120C360.778 120 376 135.222 376 154V319.003C375.833 319.002 375.667 319 375.5 319C335.459 319 303 351.459 303 391.5C303 391.667 303.002 391.833 303.003 392H169C150.222 392 135 376.778 135 358V154C135 135.222 150.222 120 169 120H342Z" fill="#D9D9D9"/>
</g>
<defs>
<clipPath id="clip0_182_2">
<rect width="512" height="512" fill="white"/>
</clipPath>
</defs>
</svg>
