<svg width="278" height="277" viewBox="0 0 278 277" fill="none" xmlns="http://www.w3.org/2000/svg">
<path d="M198.033 0.726843C240.224 -5.34381 278 27.3855 278 70.011C278 87.7217 271.332 104.288 260 116.868V203.224C259.833 203.223 259.667 203.221 259.5 203.221C219.459 203.221 187 235.68 187 275.721C187 275.888 187.002 276.055 187.003 276.221H53C34.2225 276.221 19.0003 260.998 19 242.221V117.955C7.06162 105.25 4.80666e-05 88.2365 0 70.011C0 27.3855 37.7758 -5.34381 79.9668 0.726843L127.606 7.58134C135.163 8.66863 142.837 8.66863 150.394 7.58134L198.033 0.726843Z" fill="black"/>
</svg>
